# xmcd
#
# Track frame offsets:
#	150
#	12534
#	24930
#	39832
#	51053
#	65200
#	77355
#	89179
#	99700
#	114103
#	127665
#	139551
#	152545
#	165891
#	181760
#	196020
#	209471
#	218844
#	230326
#	243548
#	254801
#
# Disc length: 3542 seconds
#
# Revision: 1
# Processed by: cddbd v1.5.2PL0 Copyright (c) Steve Scherf et al.
# Submitted via: audiograbber 1.83.01
#
DISCID=0d0dd415
DTITLE=McDaniel, Mel - Baby's Got Her Blue Jeans On - His Original Capitol Hits
DYEAR=2012
DGENRE=Country
TTITLE0=Gentle To Your Senses, Easy On Your Mind
TTITLE1=Soul Of A Honky Tonk Woman
TTITLE2=God Made Love
TTITLE3=Bordertown Woman
TTITLE4=Play Her Back To Yesterday
TTITLE5=Lovin' Starts Where Friendship Ends
TTITLE6=Countryfied
TTITLE7=Louisiana Saturday Night
TTITLE8=Right In The Palm Of Your Hand
TTITLE9=Preaching Up A Storm
TTITLE10=Take Me To The Country
TTITLE11=Big Ole Brew
TTITLE12=I Wish I Was In Nashville
TTITLE13=Old Man River (I've Come To Talk Again)
TTITLE14=I Call It Love
TTITLE15=Baby's Got Her Blue Jeans On
TTITLE16=Let It Roll (Let It Rock)
TTITLE17=Stand Up
TTITLE18=Shoe String
TTITLE19=Stand On It
TTITLE20=Real Good Feel Good Song
EXTD=
EXTT0=
EXTT1=
EXTT2=
EXTT3=
EXTT4=
EXTT5=
EXTT6=
EXTT7=
EXTT8=
EXTT9=
EXTT10=
EXTT11=
EXTT12=
EXTT13=
EXTT14=
EXTT15=
EXTT16=
EXTT17=
EXTT18=
EXTT19=
EXTT20=
PLAYORDER=
